<?xml version="1.0" encoding="utf-8"?>
<!-- Generator: Adobe Illustrator 26.0.0, SVG Export Plug-In . SVG Version: 6.00 Build 0)  -->
<svg version="1.1" id="Layer_1" xmlns="http://www.w3.org/2000/svg" xmlns:xlink="http://www.w3.org/1999/xlink" x="0px" y="0px"
	 viewBox="0 0 400 400" style="enable-background:new 0 0 400 400;" xml:space="preserve">
<style type="text/css">
	.st0{fill:#FFFFFF;}
	.st1{fill:#FF7588;}
</style>
<path class="st0" d="M282.3,400H117.7C52.7,400,0,347.3,0,282.3V117.7C0,52.7,52.7,0,117.7,0h164.7C347.3,0,400,52.7,400,117.7
	v164.7C400,347.3,347.3,400,282.3,400z"/>
<g>
	<path class="st1" d="M200,136.2c12.9-32.9,46.4-51.2,77.7-43.9c36.9,8.6,50.5,57,51.2,84.1c1.5,56.3-49.8,113.5-128.9,140.5"/>
	<path class="st1" d="M200,136.2c-12.9-32.9-46.4-51.2-77.7-43.9c-36.9,8.6-50.5,57-51.2,84.1c-1.5,56.3,49.8,113.5,128.9,140.5"/>
</g>
</svg>
