<?xml version="1.0" encoding="utf-8"?>
<!-- Generator: Adobe Illustrator 26.0.0, SVG Export Plug-In . SVG Version: 6.00 Build 0)  -->
<svg version="1.1" id="Layer_1" xmlns="http://www.w3.org/2000/svg" xmlns:xlink="http://www.w3.org/1999/xlink" x="0px" y="0px"
	 viewBox="0 0 572.93 318.64" style="enable-background:new 0 0 572.93 318.64;" xml:space="preserve">
<style type="text/css">
	.st0{fill:#31AFA5;}
</style>
<path class="st0" d="M520.85,81.19V55.15c0-7.19-2.92-13.7-7.63-18.41c-4.71-4.72-11.23-7.63-18.42-7.63h-52.08
	c-7.19,0-13.7,2.91-18.41,7.63c-4.72,4.71-7.63,11.22-7.63,18.41v208.34c0,7.19,2.91,13.7,7.63,18.41
	c4.71,4.72,11.22,7.63,18.41,7.63h52.08c7.19,0,13.71-2.91,18.42-7.63c4.71-4.71,7.63-11.22,7.63-18.41V211.4
	c0-7.19-2.92-13.7-7.63-18.41c-4.71-4.71-11.23-7.63-18.42-7.63h-26.04v-52.08h104.17v131.74c0,8.83-2.13,17.16-5.91,24.51
	c-8.68,16.86-26.03,28.52-46.17,29.08c-0.51,0.02-1.02,0.03-1.54,0.03H370.43l-0.49-1.17l-5.35-12.97l-6.18-14.97l-4.88-13.34
	l-14.16-38.74l-19.03-52.09l-7.83-21.41v154.69H208.34c-20.52,0-38.27-11.87-46.76-29.11c-3.41-6.93-5.33-14.73-5.33-22.98V211.4
	c0-7.19-2.92-13.7-7.63-18.41c-4.71-4.71-11.22-7.63-18.41-7.63H78.12c-7.19,0-13.7,2.92-18.41,7.63
	c-4.72,4.71-7.63,11.22-7.63,18.41v107.21c-20.13-0.56-37.48-12.22-46.17-29.08C2.13,282.18,0,273.85,0,265.02V53.62
	c0-8.83,2.13-17.16,5.91-24.51C14.6,12.25,31.95,0.59,52.08,0.03v133.25h104.17V52.09c0-8.25,1.92-16.05,5.33-22.98
	C170.07,11.87,187.82,0,208.34,0v263.49c0,14.38,11.66,26.04,26.04,26.04c7.19,0,13.7-2.91,18.41-7.63
	c4.72-4.71,7.63-11.22,7.63-18.41V0h46.82l0.39,0.99l4.88,12.4l6.15,15.63l0.03,0.09l19.03,52.08l19.04,52.09l7.83,21.44V0h154.72
	c0.52,0,1.03,0.01,1.54,0.03c20.14,0.56,37.49,12.22,46.17,29.08c3.78,7.35,5.91,15.68,5.91,24.51v27.57H520.85z"/>
</svg>
